<?xml version="1.0" encoding="utf-8"?>
<!-- Generator: Adobe Illustrator 23.0.2, SVG Export Plug-In . SVG Version: 6.00 Build 0)  -->
<svg version="1.1" id="Layer_1" xmlns="http://www.w3.org/2000/svg" xmlns:xlink="http://www.w3.org/1999/xlink" x="0px" y="0px"
	 viewBox="0 0 61.1 35" style="enable-background:new 0 0 61.1 35;" xml:space="preserve">
<style type="text/css">
	.st0{fill:#FFFFFF;}
</style>
<title>бургер</title>
<path class="st0" d="M59.9,2.4H1.2C0.5,2.4,0,1.9,0,1.2S0.5,0,1.2,0c0,0,0,0,0,0h58.7c0.7,0,1.2,0.5,1.2,1.2S60.6,2.4,59.9,2.4
	C59.9,2.4,59.9,2.4,59.9,2.4z"/>
<path class="st0" d="M59.9,18.7H1.2c-0.7,0-1.2-0.5-1.2-1.2c0-0.7,0.5-1.2,1.2-1.2h58.7c0.7,0,1.2,0.5,1.2,1.2
	C61.1,18.2,60.6,18.7,59.9,18.7z"/>
<path class="st0" d="M59.9,35H1.2C0.5,35,0,34.5,0,33.8c0-0.7,0.5-1.2,1.2-1.2h58.7c0.7,0,1.2,0.5,1.2,1.2
	C61.1,34.5,60.6,35,59.9,35z"/>
</svg>
