<svg id="Layer_1" data-name="Layer 1" xmlns="http://www.w3.org/2000/svg" viewBox="0 0 65.51 50"><defs><style>.cls-1{fill:#555;}</style></defs><title>3</title><path class="cls-1" d="M29.48,22.4a1.52,1.52,0,0,1,0-2.15L43.84,5.93A1.5,1.5,0,1,1,46,8.05L31.64,22.37A1.52,1.52,0,0,1,29.48,22.4Z"/><path class="cls-1" d="M38,30.87a1.52,1.52,0,0,1,0-2.15L52.31,14.4a1.5,1.5,0,1,1,2.12,2.12L40.11,30.84A1.52,1.52,0,0,1,38,30.87Z"/><path class="cls-1" d="M33.72,26.64a1.52,1.52,0,0,1,0-2.15L48.07,10.17a1.5,1.5,0,1,1,2.12,2.12L35.87,26.6A1.52,1.52,0,0,1,33.72,26.64Z"/><path class="cls-1" d="M58.3,18.39a1.5,1.5,0,0,0-2.12,0L41.8,32.77,23.28,40.6a5.26,5.26,0,0,0-3.52-3.52l7.83-18.52L42,4.18a1.5,1.5,0,0,0-2.12-2.12L25.26,16.65a1.49,1.49,0,0,0-.32.48L13,45.41c-.14.39-.34,1-.62,1.68s-.44,1.1-.3,1.24.5,0,1.22-.3l1.67-.66,28.29-12a1.49,1.49,0,0,0,.48-.32L58.3,20.51A1.5,1.5,0,0,0,58.3,18.39Z"/></svg>