<svg id="Layer_1" data-name="Layer 1" xmlns="http://www.w3.org/2000/svg" viewBox="0 0 65.51 50"><defs><style>.cls-1{fill:#555;}</style></defs><title>4</title><path class="cls-1" d="M54.73,21.75l-3.47-3.24a2.62,2.62,0,0,1-.83-2l.16-4.74A4.45,4.45,0,0,0,46,7.16l-4.74.16a2.62,2.62,0,0,1-2-.83L36,3a4.45,4.45,0,0,0-6.5,0L26.26,6.49a2.62,2.62,0,0,1-2,.83l-4.74-.16a4.45,4.45,0,0,0-4.6,4.6l.16,4.75a2.62,2.62,0,0,1-.83,2l-3.47,3.24a4.45,4.45,0,0,0,0,6.5l3.47,3.24a2.62,2.62,0,0,1,.83,2l-.16,4.74a4.45,4.45,0,0,0,4.6,4.6l4.74-.16a2.62,2.62,0,0,1,2,.83L29.51,47A4.45,4.45,0,0,0,36,47l3.24-3.47a2.62,2.62,0,0,1,2-.83l4.74.16a4.45,4.45,0,0,0,4.6-4.6l-.16-4.74a2.62,2.62,0,0,1,.83-2l3.47-3.24A4.45,4.45,0,0,0,54.73,21.75ZM32.76,34a9,9,0,1,1,9-9A9,9,0,0,1,32.76,34Z"/></svg>