<svg id="Layer_1" data-name="Layer 1" xmlns="http://www.w3.org/2000/svg" viewBox="0 0 50 50"><defs><style>.cls-1{fill:#555;}</style></defs><title>1-01</title><path class="cls-1" d="M24.47,1.75.64,15.07A1.08,1.08,0,0,0,.63,17L24.47,30.45a1.08,1.08,0,0,0,1.07,0L49.37,17a1.08,1.08,0,0,0,0-1.89L25.53,1.75A1.08,1.08,0,0,0,24.47,1.75Z"/><path class="cls-1" d="M49.36,24l-2.84-1.59-21,11.87a1.08,1.08,0,0,1-1.07,0l-21-11.87L.64,24a1.08,1.08,0,0,0,0,1.89L24.47,39.35a1.08,1.08,0,0,0,1.07,0L49.37,25.86a1.08,1.08,0,0,0,0-1.86Z"/><path class="cls-1" d="M49.36,32.87l-2.84-1.59-21,11.87a1.08,1.08,0,0,1-1.07,0l-21-11.87L.64,32.87a1.08,1.08,0,0,0,0,1.89L24.47,48.24a1.08,1.08,0,0,0,1.07,0L49.37,34.76a1.08,1.08,0,0,0,0-1.89Z"/></svg>