<svg id="Layer_1" data-name="Layer 1" xmlns="http://www.w3.org/2000/svg" viewBox="0 0 65.51 50"><defs><style>.cls-1{fill:#555;}</style></defs><title>2</title><path class="cls-1" d="M19.07,17.18H59.32A2,2,0,0,1,60.85,20L48.68,47.32a1.7,1.7,0,0,1-1.52,1.06H6.91a2,2,0,0,1-1.52-2.82L17.55,18.25A1.7,1.7,0,0,1,19.07,17.18Z"/><path class="cls-1" d="M47.88,8.51H35.16V5a3.24,3.24,0,0,0-3-3.43H22.53a3.24,3.24,0,0,0-3,3.43V8.51H6.24A2.39,2.39,0,0,0,4,11V37A2.42,2.42,0,0,0,6,39.5L16.37,16.3a1.7,1.7,0,0,1,1.52-1.06H50.1V11A2.39,2.39,0,0,0,47.88,8.51ZM22.57,5.92A1.71,1.71,0,0,1,24,4h6.6A1.71,1.71,0,0,1,32.1,5.92V8.51H22.57Z"/></svg>